<?xml version="1.0" encoding="utf-8"?>
<!-- Generator: Adobe Illustrator 21.0.0, SVG Export Plug-In . SVG Version: 6.00 Build 0)  -->
<svg version="1.1" id="Ebene_1" xmlns="http://www.w3.org/2000/svg" xmlns:xlink="http://www.w3.org/1999/xlink" x="0px" y="0px"
	 viewBox="0 0 1024 1024" style="enable-background:new 0 0 1024 1024;" xml:space="preserve">
<style type="text/css">
	.st0{fill:#3D489E;}
	.st1{opacity:0.24;fill:#FFFFFF;stroke:#000000;stroke-miterlimit:10;}
	.st2{fill:#FFFFFF;}
</style>
<rect x="0" class="st0" width="1024" height="1024"/>
<path class="st1" d="M298.6,825.1c53.6,37.6,117.8,61.3,187.8,65.8c121.9,7.8,233.7-44.7,306.4-131.8c8.2,5.6,18,9.2,28.7,9.9
	c31.6,2,58.8-22,60.8-53.5c1.5-23.4-11.2-44.3-30.7-54.5c14.3-35.5,23.3-73.9,25.8-114.3c12.9-203-141.2-378.1-344.3-391
	c-49.3-3.1-96.9,3.6-140.9,18.4c-11.8-23.2-35.2-39.7-63-41.5c-42-2.7-78.2,29.2-80.8,71.2c-1.1,17.5,3.8,34,13,47.5
	c-67.9,62.1-112.8,149.5-119.1,248.6c-6.2,97.6,26.2,188.8,84.1,258.6c-8.7,8.3-14.5,19.7-15.3,32.6c-1.7,27.2,18.9,50.6,46.1,52.3
	C273.7,844.4,288.9,837.1,298.6,825.1z M264.3,255.3c12.9,16.6,32.6,27.8,55.3,29.3c42,2.7,78.2-29.2,80.8-71.2
	c0.8-12.4-1.4-24.2-6-34.9c43.3-14.5,90.1-21.1,138.5-18C733.2,173.2,885.3,346,872.6,546.3c-2.5,39.7-11.3,77.5-25.4,112.5
	c-5.7-2.4-11.8-3.8-18.3-4.3c-31.6-2-58.8,22-60.8,53.5c-1.2,19.2,7.1,36.7,20.9,48c-71.7,85.8-182,137.5-302.2,129.9
	c-69.1-4.4-132.4-27.8-185.3-64.8c4.5-6.9,7.3-15,7.9-23.8c1.7-27.2-18.9-50.6-46.1-52.3c-12.5-0.8-24.1,3.1-33.3,10.2
	c-57.1-68.8-89.1-158.7-82.9-255C153.4,402.6,197.5,316.5,264.3,255.3z"/>
<g>
	<path class="st2" d="M530.2,381.2c-45.2,0-77.9,12.6-98,37.7c-20.1,25.1-30.2,59.4-30.2,103c0,21.2,2.5,40.4,7.5,57.6
		c5,17.2,12.4,32.1,22.4,44.5c10,12.4,22.4,22.1,37.3,28.9c14.9,6.8,32.4,10.3,52.3,10.3c10.8,0,20-0.2,27.7-0.6
		c7.7-0.4,14.4-1.2,20.2-2.5V510h97.1v213.5c-11.6,4.6-30.3,9.4-56,14.6c-25.7,5.2-57.5,7.8-95.2,7.8c-32.4,0-61.7-5-88.1-14.9
		c-26.4-10-48.9-24.5-67.5-43.6c-18.7-19.1-33.1-42.5-43.3-70.3c-10.2-27.8-15.2-59.5-15.2-95.2c0-36.1,5.6-68.1,16.8-95.9
		c11.2-27.8,26.6-51.4,46.1-70.7c19.5-19.3,42.4-33.9,68.8-43.9c26.3-10,54.5-14.9,84.3-14.9c20.3,0,38.7,1.4,55.1,4
		c16.4,2.7,30.5,5.8,42.3,9.3c11.8,3.5,21.6,7.2,29.3,10.9c7.7,3.7,13.2,6.6,16.5,8.7l-28,77.8c-13.3-7.1-28.5-13.2-45.8-18.4
		C569.3,383.8,550.6,381.2,530.2,381.2z"/>
</g>
</svg>
