<?xml version="1.0" encoding="utf-8"?>
<!-- Generator: Adobe Illustrator 21.0.0, SVG Export Plug-In . SVG Version: 6.00 Build 0)  -->
<svg version="1.1" id="Ebene_1" xmlns="http://www.w3.org/2000/svg" xmlns:xlink="http://www.w3.org/1999/xlink" x="0px" y="0px"
	 viewBox="0 0 2208 2208" style="enable-background:new 0 0 2208 2208;" xml:space="preserve">
<style type="text/css">
	.st0{fill:#3D489E;}
	.st1{opacity:0.5;fill:#3D489E;}
</style>
<g>
	<path class="st0" d="M805.4,1514.5v3.1c-2.2,6.8-4.7,13.9-7.7,21.2c4.8,5.9,7.3,11.5,7.6,16.7c0,3-0.7,5.3-2.2,6.7
		c-1.9,1.7-5.3,2.5-10,2.6l-1.3-4c0.9,0.1,1.6,0.2,2.2,0.2c3-0.1,5-0.6,6-1.5c1-0.8,1.6-2.2,1.6-4c0-4.8-2.6-10.2-7.8-16.1
		c3.3-7.8,5.9-14.8,7.7-21.1h-12.6v58.3h-3.7v-62.1H805.4z M818.2,1538.4c-1.3-3.8-3-7.4-5.2-10.8l3.5-1.3c2,3.3,3.8,7.3,5.4,12.1
		h10.3c2.1-3.8,3.9-7.9,5.5-12.4l3.5,1.3c-1.6,4.2-3.3,7.8-5.3,11.1h10.7v3.7h-40.1v-3.7H818.2z M824.9,1518.8
		c-0.9-2.7-1.7-5.2-2.7-7.3l4-0.6c0.9,2.4,1.7,5,2.4,8h15.7v3.7h-35.6v-3.7H824.9z M841.4,1576.6h-3.7v-4.2h-22.1v4.2h-3.8v-26.2
		h29.7V1576.6z M837.6,1568.7v-14.5h-22.1v14.5H837.6z"/>
	<path class="st0" d="M854.3,1546.2l-1.3-4.1c8-9.2,13.8-19.6,17.3-31.1l3.6,1.7c-1.9,5.8-4.2,11.2-7,16.3v48H863v-41.7
		C860.4,1539.1,857.4,1542.7,854.3,1546.2z M875.2,1540l-3.3-2.1c5.5-8,9.6-17,12.2-27.1l3.7,0.8c-0.9,3.1-1.8,6-2.8,8.9h31.1v2.6
		c-1.2,4.5-2.7,8.9-4.7,13.2l-3.7-1.1c1.9-3.3,3.3-7,4.5-11h-28.6C881.1,1530,878.3,1535.2,875.2,1540z M886.3,1541.3
		c-2.7,10.2-6.2,19-10.4,26.6l-3.7-1.4c4-6.8,7.6-15.6,10.6-26.2L886.3,1541.3z M883.5,1576.4l-0.9-3.7c3.2,0.1,6.2,0.3,9.1,0.3
		c1.9,0,2.8-0.9,2.8-2.8V1531h3.7v40.1c0,3.5-1.8,5.3-5.3,5.3H883.5z M917.9,1567.6l-3.5,1.6c-3-10.7-6.4-20-10.2-28.2l3.5-1.2
		C911.6,1548.5,915,1557.8,917.9,1567.6z"/>
	<path class="st0" d="M985.1,1534.5c-3,9.7-6.8,17.9-11.4,24.5c1.2,2.7,2.4,5.1,3.8,7.1c2.6,3.6,4.8,5.4,6.4,5.4
		c1.6-0.1,3-4,4.1-11.6l3.5,1.9c-1.6,9.4-3.9,14-6.9,14s-6.2-2.2-9.6-6.5c-1.6-2-2.9-4.3-4-6.9c-5.3,6.3-11.4,11-18.4,14.1l-2.2-3.3
		c7.4-3.3,13.7-8.2,18.9-14.8c-1.1-2.7-2-5.6-2.8-8.8c-1.5-6.2-2.5-14-3-23.3h-26.1v13.1H955c-0.1,11.4-0.5,19-1.3,22.6
		c-0.8,3.2-2.9,4.9-6.3,5c-1.8,0-3.9-0.1-6.3-0.2l-1.2-3.6c2.8,0.1,5.2,0.3,7.1,0.3c1.9-0.1,3-1.4,3.4-3.7c0.4-2.9,0.7-8.4,0.7-16.6
		h-13.8v3.3c-0.2,12.7-3,22.8-8.2,30.4l-3-2.7c4.7-6.6,7.1-15.8,7.3-27.7v-23.8h29.7c-0.1-3.7-0.2-7.6-0.2-11.7h3.9
		c0,4.2,0.1,8.1,0.3,11.7h22.8v3.7h-22.7c0.5,9.4,1.4,16.8,2.9,22.3c0.6,2.2,1.2,4.1,1.7,5.9c4-6,7.2-13.2,9.6-21.6L985.1,1534.5z
		 M984.5,1519.5l-2.6,2.5c-2.2-2.6-5.3-5.4-9-8.4l2.5-2.4C979,1514,982,1516.7,984.5,1519.5z"/>
	<path class="st0" d="M1028.4,1511.2v7.4c-0.1,3.7-0.2,7.3-0.5,10.7h29.9c0,20.3-0.9,33.2-2.7,38.7c-1.9,5.5-5.2,8.3-9.9,8.3
		c-3.5,0-6.3-0.1-8.6-0.2l-1.1-3.8c3.5,0.3,6.6,0.4,9.4,0.4c4.6-0.4,7.2-4.6,7.9-12.7c0.6-8.2,1-17.1,1-26.7h-26.3
		c-1.2,9.1-3.2,16.7-6,22.9c-4.2,8.7-11.3,15.6-21.1,20.5l-2.2-3.5c9.6-4.9,16.5-11.7,20.5-20.3c2.3-5.5,4-12.1,4.9-19.7h-23v-3.9
		h23.4c0.3-3.5,0.4-7,0.5-10.7v-7.4H1028.4z M1016.9,1524.8l-3.2,2.1c-2.6-3.7-5.8-7.6-9.6-11.6l3-2.2
		C1011.3,1517.5,1014.6,1521.4,1016.9,1524.8z M1044.4,1558.9l-3.4,2.3c-3-4.8-7-9.9-12.2-15.6l3.2-2
		C1037.3,1549.4,1041.5,1554.5,1044.4,1558.9z"/>
	<path class="st0" d="M1072.3,1576.1l-0.9-3.7c2.7,0.1,5.3,0.3,7.8,0.3c1.9,0,3-1.1,3-3.2v-50.8h-11.6v-3.9h24.6v3.9h-9.1v51.8
		c0,3.7-1.9,5.6-5.5,5.6H1072.3z M1117.6,1535.7v13c-0.1,7.6-2,13.6-5.5,18.1c-3.5,4.2-9.1,7.5-17.1,9.9l-2.2-3.3
		c7.6-2.2,13.1-5.3,16.3-9.1c3-4,4.5-9.2,4.6-15.6v-13H1117.6z M1134.1,1514.7v3.9h-16.3c-0.3,3-0.6,5.9-1.2,8.6h14.7v33.5h-3.8
		v-29.8h-23.2v30h-3.9v-33.7h12.3c0.5-2.7,0.9-5.6,1.1-8.6h-15.8v-3.9H1134.1z M1134.6,1574.2l-2.8,2.8c-3.3-4-7.7-8.2-13.2-12.7
		l2.7-2.5C1126.7,1566,1131,1570.1,1134.6,1574.2z"/>
	<path class="st0" d="M1176.5,1542.6c-0.4,2.9-0.9,5.5-1.6,7.9h30.9v3.7h-28.2c6.2,9.4,16.1,15.8,29.6,19.2l-2.2,3.3
		c-14.3-3.9-24.7-11.4-31.2-22.5h-0.1c-1.7,4.3-3.9,8-6.6,10.9c-5,5.1-13,9.1-24,11.9l-1.5-3.6c10.4-2.6,17.9-6.2,22.5-10.8
		c2.3-2.4,4.1-5.2,5.5-8.4h-26.6v-3.7h27.9c0.7-2.5,1.3-5.2,1.6-7.9H1176.5z M1162.1,1518.8c-3.8,8.6-8.9,15.1-15,19.7l-3.1-2.7
		c6.4-4.5,11.3-10.6,14.6-18.4L1162.1,1518.8z M1176.4,1512.1v27.4h-3.9v-27.4H1176.4z M1204.3,1536.1l-3.2,2.3
		c-3.7-6.1-8.8-12.9-15.1-20.4l3-1.9C1195.7,1523.8,1200.8,1530.5,1204.3,1536.1z"/>
	<path class="st0" d="M1274.3,1515.9v3.8h-12.4v20.5h16.2v3.8h-16.2v32.4h-3.9V1544h-22.1c-0.6,7.6-1.9,13.8-4.1,18.8
		c-2.7,5.9-7.2,10.6-13.5,14l-2.2-3.3c5.9-3.3,10.2-7.8,12.7-13.6c1.7-4.3,2.7-9.6,3.2-15.8h-17.2v-3.8h17.4c0-1.2,0.1-2.2,0.1-3.2
		v-17.3h-13.6v-3.8H1274.3z M1236.2,1537c0,1.1-0.1,2.2-0.1,3.2h21.9v-20.5h-21.8V1537z"/>
	<path class="st0" d="M1297.1,1513.4l3.9,0.6l-4.5,14.9h14.1c1.5-5.8,2.7-11.8,3.7-18.3l4,0.4c-1,6.3-2.2,12.3-3.6,17.9h34.2v3.7
		h-35.2c-1,3.3-2,6.4-3.2,9.4h29.9v3.4c-2,6.4-6.2,12.2-12.5,17.5c6,3.8,13.5,7.3,22.4,10.4l-1.9,3.6c-9.6-3.5-17.5-7.3-23.6-11.5
		c-6,4.3-13.6,8.2-22.7,11.7l-2-3.6c8.6-3.2,15.8-6.7,21.4-10.5c-6.3-4.8-10.7-10-13.1-15.6c-5.3,11.9-12.2,21.3-20.7,28.3l-2-3.6
		c10.9-9.5,19-22.6,24.1-39.5h-18.1L1297.1,1513.4z M1324.5,1560.6c5.8-4.6,9.8-9.6,11.9-15h-25.1
		C1313.8,1551,1318.2,1556.1,1324.5,1560.6z M1343.4,1523.7l-2.8,2.8c-3.2-4-7.5-8.1-13-12.5l2.7-2.5
		C1335.5,1515.6,1339.9,1519.6,1343.4,1523.7z"/>
	<path class="st0" d="M1385.4,1519.1v-8.1h3.9v8.1h17.9v3.7h-17.9v9.7h9.6c6.8-4.8,13-10.4,18.3-16.7l3,2.2
		c-4.6,5.5-9.6,10.3-14.9,14.5h17.2v3.7H1400c-1.3,0.8-2.4,1.6-3.6,2.3c-4,2.3-8.3,4.5-13,6.7h29.5v31.8h-4v-3.5h-32.9v3.5h-3.9
		v-27.2c-4.1,1.4-8.4,2.9-12.8,4.2l-1.6-3.6c12.5-3,24-7.4,34.2-13.4c0.4-0.3,0.8-0.5,1.2-0.7h-34.5v-3.7h26.7v-9.7h-19.9v-3.7
		H1385.4z M1409,1548.8h-32.9v8.7h32.9V1548.8z M1376.1,1569.9h32.9v-8.9h-32.9V1569.9z"/>
</g>
<g>
	<g>
		<path class="st1" d="M1381,1153.2c30-49.1,47.2-106.8,47.2-168.5c0-107.4-52.3-202.6-132.8-261.5c4.5-7.5,7.1-16.3,7.1-25.7
			c0-27.8-22.6-50.4-50.4-50.4c-20.6,0-38.3,12.3-46.1,30c-32-10.6-66.2-16.3-101.7-16.3c-178.9,0-323.9,145-323.9,323.9
			c0,43.4,8.5,84.8,24,122.6c-19.7,11.7-32.9,33.1-32.9,57.6c0,37,30,67,67,67c15.4,0,29.7-5.2,41-14
			c58.2,56.1,137.4,90.7,224.7,90.7c86,0,164.2-33.5,222.2-88.2c7.7,7.2,18.1,11.6,29.5,11.6c23.9,0,43.3-19.4,43.3-43.3
			C1399.4,1173.9,1392.1,1161,1381,1153.2z M883,1215.1c13.9-12.3,22.6-30.2,22.6-50.2c0-37-30-67-67-67c-10.9,0-21.2,2.6-30.3,7.2
			c-15.2-37.2-23.5-77.9-23.5-120.5c0-176.5,143.1-319.5,319.5-319.5c35,0,68.6,5.6,100.1,16c-1.8,5.1-2.7,10.6-2.7,16.3
			c0,27.8,22.6,50.4,50.4,50.4c16.9,0,31.8-8.3,40.9-21c79.3,58.1,130.8,152,130.8,257.9c0,60.9-17,117.7-46.6,166.2
			c-6.3-3.6-13.6-5.6-21.3-5.6c-23.9,0-43.3,19.4-43.3,43.3c0,11,4.1,21,10.8,28.6c-57.2,53.9-134.3,87-219.1,87
			C1018.4,1304.2,940.4,1270.3,883,1215.1z"/>
		<g>
			<path class="st0" d="M834.5,992.2h22.2v74.1c-1.8,0.6-4.5,1.3-7.9,2.1c-3.4,0.8-7.4,1.5-11.9,2.3c-4.5,0.8-9.4,1.4-14.8,1.9
				c-5.3,0.5-10.8,0.8-16.2,0.8c-11.1,0-21.3-1.8-30.4-5.5c-9.2-3.7-17-9-23.6-16c-6.6-7-11.6-15.6-15.2-25.9
				c-3.6-10.2-5.4-22-5.4-35.2c0-13.3,2-25.1,6.1-35.3c4-10.3,9.5-19,16.4-26c6.9-7,14.9-12.4,24.1-16c9.2-3.7,19.1-5.5,29.6-5.5
				c7.2,0,13.5,0.5,19.1,1.4c5.6,0.9,10.3,2,14.3,3.2c4,1.2,7.2,2.4,9.7,3.7c2.5,1.2,4.2,2.1,5.1,2.7l-7.1,18.5
				c-4.4-2.9-10.3-5.3-17.6-7.2c-7.3-1.9-14.8-2.9-22.4-2.9c-8.1,0-15.4,1.5-22.1,4.3c-6.6,2.9-12.3,7.1-16.9,12.6
				c-4.7,5.5-8.3,12.2-10.9,20c-2.6,7.9-3.9,16.7-3.9,26.4c0,9.5,1.1,18.1,3.3,25.9c2.2,7.8,5.6,14.5,10.1,20
				c4.5,5.6,10.1,9.9,16.7,12.9c6.6,3.1,14.5,4.6,23.5,4.6c6.4,0,11.9-0.3,16.4-1c4.5-0.7,7.7-1.3,9.7-1.9V992.2z"/>
			<path class="st0" d="M934,948.7c1.8,0,3.9,0.1,6.3,0.3c2.4,0.2,4.7,0.5,7,0.9c2.3,0.4,4.4,0.8,6.3,1.1c1.9,0.4,3.3,0.7,4.2,1
				l-3.7,18.5c-1.7-0.6-4.5-1.3-8.4-2.2c-3.9-0.8-8.9-1.3-15-1.3c-4,0-7.9,0.4-11.8,1.3c-3.9,0.8-6.4,1.4-7.7,1.7v100h-21.3V956.3
				c5-1.8,11.3-3.5,18.8-5.1C916.3,949.5,924.7,948.7,934,948.7z"/>
			<path class="st0" d="M1083.4,1010.7c0,9.5-1.4,18-4.1,25.6c-2.7,7.6-6.6,14.2-11.6,19.7c-5,5.5-10.9,9.7-17.7,12.7
				c-6.9,3-14.3,4.5-22.4,4.5c-8.1,0-15.6-1.5-22.4-4.5c-6.9-3-12.8-7.2-17.7-12.7c-5-5.5-8.8-12-11.6-19.7
				c-2.7-7.6-4.1-16.2-4.1-25.6c0-9.3,1.4-17.8,4.1-25.5c2.7-7.7,6.6-14.3,11.6-19.8c5-5.5,10.9-9.7,17.7-12.7
				c6.9-3,14.3-4.5,22.4-4.5c8.1,0,15.6,1.5,22.4,4.5c6.9,3,12.8,7.2,17.7,12.7c5,5.5,8.8,12.1,11.6,19.8
				C1082.1,992.9,1083.4,1001.4,1083.4,1010.7z M1061.2,1010.7c0-13.4-3-24.1-9-31.9c-6-7.9-14.2-11.8-24.6-11.8
				c-10.4,0-18.6,3.9-24.6,11.8c-6,7.9-9,18.5-9,31.9c0,13.4,3,24.1,9,31.9c6,7.9,14.2,11.8,24.6,11.8c10.4,0,18.6-3.9,24.6-11.8
				C1058.2,1034.8,1061.2,1024.1,1061.2,1010.7z"/>
			<path class="st0" d="M1207.7,1070.2c-4.3-11-8.8-23.5-13.6-37.6c-4.8-14.1-9.2-28.8-13.2-44c-4,15.3-8.3,29.9-13,44
				c-4.7,14.1-9.2,26.7-13.5,37.6h-18.5c-7-15.7-13.9-33.6-20.6-53.8c-6.7-20.1-13-41.9-19-65.2h22.9c1.5,7.2,3.4,15,5.5,23.3
				c2.1,8.4,4.4,16.8,6.7,25.2c2.4,8.4,4.8,16.5,7.4,24.3c2.6,7.8,5,14.6,7.3,20.4c2.6-7.2,5.1-14.8,7.7-22.8
				c2.5-8,4.9-16.1,7.2-24.3c2.3-8.2,4.5-16.2,6.5-24c2.1-7.9,3.8-15.2,5.4-22.1h17.6c1.4,6.9,3.1,14.2,5,22.1
				c2,7.9,4.1,15.9,6.4,24c2.3,8.2,4.7,16.2,7.2,24.3c2.5,8,5.1,15.6,7.7,22.8c2.3-5.8,4.7-12.6,7.2-20.4c2.5-7.8,5-15.9,7.4-24.3
				c2.4-8.4,4.7-16.8,6.9-25.2c2.1-8.4,4-16.2,5.5-23.3h22c-5.9,23.3-12.3,45.1-19,65.2c-6.7,20.1-13.6,38.1-20.6,53.8H1207.7z"/>
			<path class="st0" d="M1308.1,951.2h45.1v17.8h-45.1v54.9c0,5.9,0.5,10.9,1.4,14.8c0.9,3.9,2.3,6.9,4.1,9.2
				c1.8,2.2,4.1,3.8,6.9,4.7c2.7,0.9,5.9,1.4,9.6,1.4c6.4,0,11.6-0.7,15.4-2.2c3.9-1.4,6.6-2.5,8.1-3.1l4.1,17.6
				c-2.1,1.1-5.9,2.4-11.2,4c-5.3,1.6-11.4,2.4-18.3,2.4c-8.1,0-14.8-1-20-3.1c-5.3-2.1-9.5-5.1-12.7-9.3c-3.2-4.1-5.5-9.2-6.8-15.2
				c-1.3-6-1.9-13-1.9-20.9V918.1l21.3-3.7V951.2z"/>
			<path class="st0" d="M1380.2,1070.2V896.3l21.3-3.7v60.9c4-1.5,8.2-2.7,12.7-3.5c4.5-0.8,9-1.3,13.4-1.3c9.5,0,17.3,1.3,23.6,4
				c6.3,2.7,11.2,6.4,15,11.2c3.7,4.8,6.4,10.6,7.9,17.3c1.5,6.7,2.3,14.1,2.3,22.2v66.8H1455V1008c0-7.3-0.5-13.6-1.5-18.8
				c-1-5.2-2.6-9.4-4.9-12.6c-2.3-3.2-5.3-5.5-9.2-7c-3.8-1.4-8.5-2.2-14.2-2.2c-2.3,0-4.7,0.2-7.1,0.5c-2.4,0.3-4.8,0.7-7,1
				c-2.2,0.4-4.2,0.8-5.9,1.3c-1.8,0.5-3,0.8-3.8,1.1v98.8H1380.2z"/>
		</g>
	</g>
</g>
</svg>
